<svg fill="#fff" xmlns="http://www.w3.org/2000/svg" viewBox="0 0 512.002 512.002" width="512" height="512"><path d="M510.375 289.772a7.517 7.517 0 0 0-10.56-1.22l-14.741 11.69-119.143-156.43 68.111-43.715a7.514 7.514 0 0 0 2.265-10.383 7.513 7.513 0 0 0-10.382-2.265l-74.964 48.115c-3.636 2.334-4.542 7.435-1.92 10.877l13.643 17.913-9.701 7.426-38.515-12.725a7.67 7.67 0 0 0-2.358-.379h-88.172a7.514 7.514 0 0 0-7.29 5.692l-4.962 19.846-12.524-5.273a7.52 7.52 0 0 0-3.789-.538l-34.838 4.08-11.837-6.872 11.259-19.5c2.046-3.546.792-8.22-2.75-10.265L11.273 61.589a7.512 7.512 0 0 0-10.265 2.75 7.515 7.515 0 0 0 2.75 10.265l114.369 66.031L19.421 311.6l-8.148-4.704a7.512 7.512 0 0 0-10.265 2.75 7.515 7.515 0 0 0 2.75 10.265l39.711 22.928c3.549 2.048 8.221.792 10.265-2.75l5.746-9.952 16.211 8.646c-5.288 10.251-4.767 23.047 2.444 33.013 6.165 8.519 15.823 13.048 25.613 13.048a31.47 31.47 0 0 0 9.72-1.541c.02 6.71 2.153 13.16 6.209 18.547 6.159 8.181 15.677 12.516 25.296 12.516 3.214 0 6.44-.485 9.555-1.472a31.375 31.375 0 0 0 5.969 18.034c4.942 6.83 12.248 11.327 20.571 12.662 1.692.272 3.385.406 5.066.406 3.263 0 6.48-.509 9.558-1.497.089 6.435 2.136 12.676 5.987 17.997 4.942 6.829 12.248 11.327 20.571 12.662 1.692.271 3.385.406 5.066.405 6.589 0 12.993-2.061 18.434-5.999l17.532-12.686a31.44 31.44 0 0 0 9.063-10.17l30.843 16.811c4.7 2.562 9.854 3.864 15.062 3.864 2.993 0 6.006-.431 8.957-1.3 8.087-2.382 14.763-7.769 18.797-15.172 3.145-5.77 4.384-12.226 3.652-18.622a31.38 31.38 0 0 0 5.677.519c11.188-.001 22.045-5.956 27.766-16.452a31.378 31.378 0 0 0 3.632-18.624 31.38 31.38 0 0 0 5.694.521c11.189-.001 22.046-5.956 27.766-16.452 3.143-5.766 4.382-12.218 3.653-18.61 1.875.348 3.775.527 5.685.527 2.994 0 6.006-.431 8.957-1.3 8.087-2.382 14.763-7.769 18.798-15.172 4.035-7.402 4.947-15.932 2.565-24.02a31.942 31.942 0 0 0-2.228-5.567l13.181-9.356 6.963 9.142c2.512 3.298 7.394 3.914 10.648 1.335l20.744-16.451a7.515 7.515 0 0 0 1.218-10.557zM44.477 326.067l-12.04-6.952 98.706-170.965 12.04 6.952-98.706 170.965zm68.918 40.62c-7.383 5.345-17.74 3.685-23.084-3.701-5.343-7.385-3.682-17.742 3.703-23.086l53.159-38.463c2.953-2.136 6.35-3.17 9.712-3.17 4.949 0 9.823 2.239 13.091 6.494 5.602 7.296 4.024 18.072-3.417 23.461l-53.164 38.465zm41.181 29.568c-7.246 5.243-17.517 3.698-22.893-3.444-5.57-7.397-3.425-18.326 3.948-23.661l39.734-28.749c1.446-.964 2.783-1.979 4.403-2.666a16.476 16.476 0 0 1 7.33-1.284c4.786.266 9.267 2.673 12.183 6.469 5.602 7.295 4.025 18.072-3.417 23.461l-41.288 29.874zm41.181 29.566a16.408 16.408 0 0 1-12.309 2.93 16.424 16.424 0 0 1-10.776-6.633c-5.341-7.382-3.684-17.731 3.692-23.077l28.315-20.488 1.104-.799c7.299-5.28 17.315-3.82 22.803 3.324 5.603 7.298 4.023 18.077-3.422 23.464l-29.407 21.279zm65.381 5.872a16.396 16.396 0 0 1-6.668 11.009l-17.532 12.686c-7.304 5.286-17.807 3.594-23.085-3.702-5.302-7.327-3.574-17.779 3.702-23.085l16.42-11.88 1.113-.806c7.194-5.204 17.399-3.712 22.802 3.324a16.396 16.396 0 0 1 3.248 12.454zm182.949-93.641c-4.309 7.906-14.509 10.921-22.429 6.604L334.777 297.3a7.516 7.516 0 0 0-7.194 13.197l72.806 39.683c8.005 4.363 10.966 14.424 6.605 22.428-4.363 8.003-14.424 10.968-22.429 6.604l-73.872-40.265a7.515 7.515 0 0 0-7.192 13.197l59.807 32.599c7.995 4.367 10.952 14.421 6.593 22.421-4.308 7.905-14.508 10.922-22.429 6.604l-62.614-34.129a7.516 7.516 0 0 0-7.194 13.197l48.538 26.456c7.907 4.309 10.921 14.509 6.604 22.429-4.308 7.907-14.508 10.919-22.427 6.603l-34.046-18.557c.12-7.09-2.127-13.957-6.523-19.681-5.904-7.688-14.553-11.928-23.473-12.361.141-.667.27-1.34.369-2.021 1.24-8.511-.961-16.955-6.2-23.777-5.905-7.687-14.554-11.927-23.474-12.36.141-.667.27-1.34.369-2.022 1.24-8.512-.961-16.955-6.2-23.777-5.905-7.688-14.554-11.927-23.474-12.36.141-.667.27-1.34.369-2.021 1.24-8.512-.961-16.956-6.2-23.777-10.476-13.642-29.601-16.428-43.533-6.345l-52.443 37.94-18.922-10.092 74.184-128.489 13.968 8.11a7.528 7.528 0 0 0 4.647.965l35.356-4.141 12.843 5.408-7.381 29.526a7.564 7.564 0 0 0-.224 1.823v64.125c0 21.823 17.755 39.577 39.577 39.577 21.823 0 39.577-17.755 39.577-39.577v-61.97l1.366-2.185 156.57 85.339c7.906 4.309 10.923 14.506 6.606 22.428zm3.585-33.764a32.151 32.151 0 0 0-2.996-1.861l-155.783-84.912 5.78-9.247a7.516 7.516 0 0 0-12.746-7.965l-16.268 26.029a7.526 7.526 0 0 0-1.142 3.983v64.125c0 13.535-11.011 24.548-24.548 24.548s-24.548-11.012-24.548-24.548v-63.2l14.383-57.535H310.9l41.139 13.591a7.573 7.573 0 0 0 6.924-1.168l12.826-9.818 89.898 118.031-14.015 9.947zM510.81 41.896a7.513 7.513 0 0 0-10.382-2.265l-42.102 27.022a7.514 7.514 0 0 0-2.265 10.383 7.505 7.505 0 0 0 6.33 3.457c1.39 0 2.795-.385 4.052-1.191l42.102-27.022a7.518 7.518 0 0 0 2.265-10.384z"/></svg>