<svg fill="#fff" xmlns="http://www.w3.org/2000/svg" height="512" viewBox="-5 0 483 483.16567" width="512"><path d="M469.082 274.773l-11.344-11.265c-12.664-12.055-32.566-12.055-45.23 0l-68.426 68.496v-8.84c0-13.254-10.746-24-24-24h-208a8.017 8.017 0 0 0-5.656 2.344l-26.344 26.347v-4.69c0-8.837-7.164-16-16-16h-48c-8.836 0-16 7.163-16 16v144c0 8.839 7.164 16 16 16h48c8.836 0 16-7.161 16-16v-4.688l35.313-35.313h220.687a8.001 8.001 0 0 0 5.656-2.344l127.367-127.36c6.25-6.276 6.239-16.425-.023-22.687zm-405 192.391h-48v-144h48zm268.688-56H112.082a8.017 8.017 0 0 0-5.656 2.344l-26.344 26.347v-89.378l35.313-35.313h204.687a8 8 0 0 1 8 8v24h-104v16h112a8 8 0 0 0 8-8l79.738-80.344c6.246-6.246 16.375-6.246 22.621 0l11.344 11.313zm-188.688-208h192a8 8 0 0 0 8-8c0-42.191-17.39-67.734-48-71.469V58.156a39.868 39.868 0 0 0-14.398-30.726L255.449 5.566c-8.898-7.421-21.832-7.421-30.734 0l-26.23 21.856a39.888 39.888 0 0 0-14.403 30.734v65.54c-30.605 3.734-48 29.277-48 71.468a8 8 0 0 0 8 8zm183.777-16h-31.777v-47.367c19.48 3.273 30.137 19.16 31.777 47.367zM200.082 58.156a23.94 23.94 0 0 1 8.64-18.437l26.239-21.875a8.008 8.008 0 0 1 10.242 0l26.246 21.875a23.946 23.946 0 0 1 8.633 18.437v129.008h-80zm-16 81.64v47.368h-31.773c1.636-28.207 12.293-44.094 31.773-47.367zm0 0"/><path d="M240.082 99.164c13.254 0 24-10.742 24-24 0-13.254-10.746-24-24-24s-24 10.746-24 24c0 13.258 10.746 24 24 24zm0-32a8 8 0 1 1 0 16 8 8 0 0 1 0-16zm-8 152h16v32h-16zm0 48h16v16h-16zm32-48h16v16h-16zm0 32h16v16h-16zm-64-32h16v16h-16zm0 32h16v16h-16zm-168-176h16v-16h16v-16h-16v-16h-16v16h-16v16h16zm384 104h16v-16h16v-16h-16v-16h-16v16h-16v16h16zm-352 32v16h-16v16h16v16h16v-16h16v-16h-16v-16zm296-184h16v16h-16zm-32 56h16v16h-16zm-240 16h16v16h-16zm-72 88h16v16h-16zm0 0"/></svg>