<svg fill="#fff" xmlns="http://www.w3.org/2000/svg" viewBox="0 0 512 512" width="512" height="512"><path d="M503.983 409.386a8.016 8.016 0 0 0 8.017-8.017V119.182a8.021 8.021 0 0 0-2.347-5.669l-85.511-85.511a8.021 8.021 0 0 0-5.669-2.347h-180.11V24.05c0-13.261-10.789-24.05-24.05-24.05H24.05C10.789 0 0 10.789 0 24.05v258.672c0 13.261 10.789 24.05 24.05 24.05h61.461v197.211A8.016 8.016 0 0 0 93.528 512h410.455a8.016 8.016 0 0 0 8.017-8.017v-59.858a8.016 8.016 0 0 0-8.017-8.017 8.016 8.016 0 0 0-8.017 8.017v51.841H101.545V306.772h112.768c13.261 0 24.05-10.789 24.05-24.05V144.83c0-4.428-3.588-8.017-8.017-8.017s-8.017 3.588-8.017 8.017v137.893c0 4.421-3.596 8.017-8.017 8.017H24.05c-4.421 0-8.017-3.596-8.017-8.017V24.05c0-4.421 3.596-8.017 8.017-8.017h190.263c4.421 0 8.017 3.596 8.017 8.017v78.029c0 4.428 3.588 8.017 8.017 8.017s8.017-3.588 8.017-8.017V41.687h172.119c-.012.177-.027.354-.027.534v76.96a8.016 8.016 0 0 0 8.017 8.017h76.96c.181 0 .357-.015.534-.027V401.37a8.015 8.015 0 0 0 8.016 8.016zm-77.494-298.221V53.024l58.141 58.141h-58.141z"/><path d="M198.28 367.699h-53.445a8.016 8.016 0 0 0-8.017 8.017 8.016 8.016 0 0 0 8.017 8.017h53.445a8.017 8.017 0 0 0 0-16.034zm0 42.756h-53.445a8.016 8.016 0 0 0-8.017 8.017 8.016 8.016 0 0 0 8.017 8.017h53.445a8.016 8.016 0 0 0 8.017-8.017 8.017 8.017 0 0 0-8.017-8.017zm160.334-162.472c-32.766 0-63.308 13.023-86.001 36.671a8.016 8.016 0 0 0 .233 11.335 8.015 8.015 0 0 0 11.335-.233c19.641-20.467 46.076-31.739 74.433-31.739 56.876 0 103.148 46.272 103.148 103.148S415.49 470.313 358.614 470.313s-103.148-46.272-103.148-103.148c0-16.798 3.908-32.813 11.616-47.601a8.019 8.019 0 0 0-3.403-10.815c-3.926-2.043-8.768-.522-10.815 3.404-8.786 16.859-13.431 35.882-13.431 55.012 0 65.717 53.465 119.182 119.182 119.182s119.182-53.465 119.182-119.182-53.467-119.182-119.183-119.182z"/><path d="M376.915 360.217l-12.423-.366v-44.528h28.326a8.016 8.016 0 0 0 8.017-8.017 8.016 8.016 0 0 0-8.017-8.017h-28.326v-9.086a8.016 8.016 0 0 0-8.017-8.017 8.016 8.016 0 0 0-8.017 8.017v9.086h-8.017c-13.261 0-24.05 10.789-24.05 24.05v27.791c0 13.217 10.719 23.98 23.92 24.05l8.147.239v43.585h-24.05a8.016 8.016 0 0 0-8.017 8.017 8.016 8.016 0 0 0 8.017 8.017h24.05v9.086a8.016 8.016 0 0 0 8.017 8.017 8.016 8.016 0 0 0 8.017-8.017v-9.086h12.292c13.261 0 24.05-10.789 24.05-24.05v-26.722c.001-13.216-10.718-23.978-23.919-24.049zm-28.456-.837l-7.78-.229a9.227 9.227 0 0 0-.236-.003c-4.421 0-8.017-3.596-8.017-8.017V323.34c0-4.421 3.596-8.017 8.017-8.017h8.017v44.057zm36.343 51.61c0 4.421-3.596 8.017-8.017 8.017h-12.292v-43.114l12.056.355c.078.002.157.003.236.003 4.421 0 8.017 3.596 8.017 8.017v26.722zM204.693 25.653H33.67a8.016 8.016 0 0 0-8.017 8.017v42.756a8.016 8.016 0 0 0 8.017 8.017h171.023a8.016 8.016 0 0 0 8.017-8.017V33.67a8.016 8.016 0 0 0-8.017-8.017zm-8.017 42.756H41.687V41.687h154.99v26.722zM67.875 94.063H33.67a8.016 8.016 0 0 0-8.017 8.017v34.205a8.016 8.016 0 0 0 8.017 8.017h34.205a8.016 8.016 0 0 0 8.017-8.017V102.08a8.017 8.017 0 0 0-8.017-8.017zm-8.017 34.204H41.687v-18.171h18.171v18.171zm76.426-34.204h-34.205a8.016 8.016 0 0 0-8.017 8.017v34.205a8.016 8.016 0 0 0 8.017 8.017h34.205a8.016 8.016 0 0 0 8.017-8.017V102.08a8.016 8.016 0 0 0-8.017-8.017zm-8.017 34.204h-18.171v-18.171h18.171v18.171zm76.426-34.204h-34.205a8.016 8.016 0 0 0-8.017 8.017v34.205a8.016 8.016 0 0 0 8.017 8.017h34.205a8.016 8.016 0 0 0 8.017-8.017V102.08a8.015 8.015 0 0 0-8.017-8.017zm-8.017 34.204h-18.171v-18.171h18.171v18.171zM67.875 162.472H33.67a8.016 8.016 0 0 0-8.017 8.017v34.205a8.016 8.016 0 0 0 8.017 8.017h34.205a8.016 8.016 0 0 0 8.017-8.017v-34.205a8.017 8.017 0 0 0-8.017-8.017zm-8.017 34.204H41.687v-18.171h18.171v18.171zm76.426-34.204h-34.205a8.016 8.016 0 0 0-8.017 8.017v34.205a8.016 8.016 0 0 0 8.017 8.017h34.205a8.016 8.016 0 0 0 8.017-8.017v-34.205a8.016 8.016 0 0 0-8.017-8.017zm-8.017 34.204h-18.171v-18.171h18.171v18.171zm-60.392 34.205H33.67a8.016 8.016 0 0 0-8.017 8.017v34.205a8.016 8.016 0 0 0 8.017 8.017h34.205a8.016 8.016 0 0 0 8.017-8.017v-34.205a8.017 8.017 0 0 0-8.017-8.017zm-8.017 34.205H41.687v-18.171h18.171v18.171zm76.426-34.205h-34.205a8.016 8.016 0 0 0-8.017 8.017v34.205a8.016 8.016 0 0 0 8.017 8.017h34.205a8.016 8.016 0 0 0 8.017-8.017v-34.205a8.016 8.016 0 0 0-8.017-8.017zm-8.017 34.205h-18.171v-18.171h18.171v18.171zm76.426-102.614h-34.205a8.016 8.016 0 0 0-8.017 8.017v102.614a8.016 8.016 0 0 0 8.017 8.017h34.205a8.016 8.016 0 0 0 8.017-8.017V170.489a8.015 8.015 0 0 0-8.017-8.017zm-8.017 102.614h-18.171v-86.58h18.171v86.58zm278.621-76.046l-43.668-41.467c-3.209-3.05-8.283-2.917-11.333.293a8.015 8.015 0 0 0 .293 11.333l37.701 35.802-6.654 6.654L336.377 86.391a8.02 8.02 0 0 0-4.097-2.192l-29.706-5.941-14.301-15.769c-2.975-3.281-8.047-3.529-11.324-.554a8.019 8.019 0 0 0-.554 11.324s16.484 18.037 17.032 18.398l5.232 26.161a8.02 8.02 0 0 0 2.192 4.097l127.735 127.736c4.689 4.688 10.847 7.031 17.006 7.031 6.159 0 12.317-2.343 17.005-7.031h.001l1.511-1.512c9.375-9.377 9.375-24.635 0-34.011l-1.134-1.134 12.471-12.471c3.143-3.144 3.075-8.423-.149-11.483zm-161.392-76.744l-3.211-16.062 16.061 3.212 77.266 77.268-12.848 12.848-77.268-77.266zm138.868 124.505l-1.51 1.511c-3.128 3.124-8.213 3.127-11.338 0l-37.412-37.413 12.847-12.848 37.413 37.413c3.126 3.125 3.125 8.211 0 11.337z"/></svg>