<svg xmlns="http://www.w3.org/2000/svg" height="512" viewBox="0 0 512 512" width="512" fill="#fff"><path d="M192.43 282.527a7.679 7.679 0 0 0-10.856 0c-10.55 10.551-27.715 10.551-38.265 0a7.679 7.679 0 0 0-10.856 0 7.684 7.684 0 0 0 0 10.86c8.27 8.27 19.129 12.402 29.988 12.402s21.723-4.137 29.993-12.402a7.68 7.68 0 0 0-.004-10.86zm15.816-35.015a7.678 7.678 0 0 0 7.68-7.676v-23.371a7.678 7.678 0 0 0-15.356 0v23.37a7.677 7.677 0 0 0 7.676 7.677zm-91.609-38.722a7.678 7.678 0 0 0-7.68 7.675v23.37a7.678 7.678 0 0 0 15.356 0v-23.37a7.677 7.677 0 0 0-7.676-7.676zm0 0"/><path d="M226.285 347.773c2.172.59 4.453.914 6.813.914h6.086c11.632 0 21.5-7.695 24.78-18.265H282.7c12.024 0 21.809-9.785 21.809-21.809v-6.508c11.797-3.734 20.375-14.785 20.375-27.8v-64.016c0-13.016-8.578-24.066-20.38-27.8v-40.423c0-1.449-.019-2.902-.062-4.355a111.862 111.862 0 0 0 9.985-8.785c20.883-20.692 32.547-48.27 32.832-77.653.101-10.203-3.985-20.25-11.207-27.566-7.09-7.184-16.434-11.156-26.313-11.187h-.117c-10.035 0-19.469 3.898-26.578 10.984a37.94 37.94 0 0 0-3.402 3.883c-6.883-9.032-17.75-14.867-29.954-14.867a37.405 37.405 0 0 0-18.792 5.039C210.02 6.059 186.457 0 162.44 0 84.105 0 20.375 63.73 20.375 142.066v40.422C8.578 186.223 0 197.273 0 210.29v64.016c0 16.078 13.082 29.156 29.156 29.156h8.352c7.996 0 15.242-3.234 20.515-8.461 5.48 15.004 14.207 28.762 25.84 40.39 13.063 13.067 28.805 22.473 45.989 27.72v14.046h-7.422c-26.766 0-48.543 21.774-48.543 48.54v1.792a7.678 7.678 0 0 0 15.355 0v-1.793c0-18.297 14.887-33.187 33.188-33.187h9.02c4.253 13.058 16.534 22.523 30.995 22.523 14.453 0 26.735-9.465 30.985-22.523h9.02c18.292 0 33.175 14.887 33.175 33.187v70.95H89.242V458.2a7.677 7.677 0 0 0-15.351 0v46.125A7.677 7.677 0 0 0 81.566 512h161.739a7.677 7.677 0 0 0 7.675-7.676v-78.629c0-26.765-21.77-48.539-48.53-48.539h-7.423v-14.062a110.215 110.215 0 0 0 31.258-15.32zm12.899-14.441h-6.086c-5.84 0-10.586-4.75-10.586-10.586 0-5.84 4.746-10.586 10.586-10.586h6.086c5.84 0 10.586 4.746 10.586 10.586 0 5.836-4.747 10.586-10.586 10.586zm43.515-18.266h-18.734a25.773 25.773 0 0 0-3.133-6.593 110.682 110.682 0 0 0 5.984-13.512c5.278 5.25 12.543 8.5 20.559 8.5h1.777v5.152a6.46 6.46 0 0 1-6.453 6.453zm26.828-104.777v64.016c0 7.61-6.191 13.8-13.8 13.8h-8.352c-7.613 0-13.805-6.19-13.805-13.8v-64.016c0-7.61 6.196-13.8 13.805-13.8h8.352c7.609 0 13.8 6.19 13.8 13.8zm-20.375-29.156h-1.78a28.984 28.984 0 0 0-13.802 3.48v-29.941a109.336 109.336 0 0 0 15.582-6.95zM162.442 15.355c19.667 0 38.984 4.563 56.417 13.243a37.462 37.462 0 0 0-6.03 13.886H164.12a7.678 7.678 0 0 0 0 15.356h55.602a7.677 7.677 0 0 0 7.675-7.676c0-12.289 10-22.289 22.29-22.289s22.289 10 22.289 22.29a7.678 7.678 0 0 0 15.355 0c0-5.97 2.324-11.575 6.55-15.786 4.208-4.2 9.794-6.504 15.74-6.504h.07c5.753.016 11.238 2.367 15.433 6.621 4.367 4.426 6.84 10.484 6.777 16.629-.246 25.312-10.293 49.066-28.285 66.895-18.004 17.835-41.879 27.66-67.226 27.66H91.03c-2.203 0-4.304.957-5.761 2.613s-2.13 3.867-1.852 6.055c.71 5.566.852 21.914-6.918 30.547-2.55 2.835-5.797 4.699-9.832 5.628l-.004-74.722c0-31.957 26.004-57.961 57.961-57.961h8.785a7.677 7.677 0 0 0 0-15.352h-8.785c-40.426 0-73.312 32.887-73.312 73.313v68.812a28.988 28.988 0 0 0-13.805-3.48H35.73v-39.067c0-69.87 56.844-126.71 126.711-126.71zm-111.13 258.95c0 7.61-6.19 13.8-13.804 13.8h-8.352c-7.61 0-13.8-6.19-13.8-13.8v-64.016c0-7.61 6.19-13.8 13.8-13.8h8.352c7.613 0 13.804 6.19 13.804 13.8zm15.356-17.493v-50.69c8.68-1.22 15.824-4.903 21.297-11.017 9.176-10.246 10.988-24.847 11.097-34.07h137.333c7.41 0 14.71-.726 21.82-2.14v97.917a95.742 95.742 0 0 1-9.59 41.778 25.783 25.783 0 0 0-9.441-1.785h-6.086c-14.305 0-25.942 11.636-25.942 25.941a25.79 25.79 0 0 0 5.328 15.723c-15.02 9.25-32.136 14.117-50.043 14.117-25.578 0-49.629-9.961-67.718-28.05-18.094-18.09-28.055-42.141-28.055-67.724zm112.926 127.211c-.008.067-.008.137-.012.204-.895 8.668-8.238 15.449-17.137 15.449-8.902 0-16.25-6.781-17.144-15.45-.008-.066-.008-.136-.016-.203-.047-.52-.078-17.41-.078-17.41 5.652.875 11.41 1.328 17.234 1.328 5.829 0 11.582-.457 17.23-1.332 0 .004-.03 16.895-.077 17.414zm219.359 9.508h-55.61c-19.85 0-36.007 16.156-36.007 36.008v6.828l-30.047 64.723a7.673 7.673 0 0 0 .492 7.363A7.684 7.684 0 0 0 284.25 512h49.137a7.679 7.679 0 0 0 6.965-4.445l28.699-61.817h29.902c14.395 0 26.106-11.707 26.106-26.101s-11.711-26.106-26.106-26.106zm-70.465 103.114h-32.207l23.633-50.907h32.207zm70.465-66.262h-76.262v-.844c0-11.387 9.266-20.652 20.653-20.652h55.61c5.929 0 10.75 4.82 10.75 10.75 0 5.926-4.821 10.746-10.75 10.746zm23.539-235.433c-48.82 0-88.543 39.718-88.543 88.542s39.723 88.547 88.543 88.547c48.824 0 88.547-39.723 88.547-88.547s-39.723-88.543-88.547-88.543zm0 161.734c-40.355 0-73.187-32.832-73.187-73.192 0-40.36 32.832-73.191 73.187-73.191 40.36 0 73.192 32.832 73.192 73.191 0 40.36-32.832 73.192-73.192 73.192zm0 0"/><path d="M422.563 266.5c-6.418 0-10.903 2.758-10.903 6.707v53.324c0 4.094 5.637 6.844 10.903 6.844 5.78 0 11.046-3.262 11.046-6.844v-53.324c0-3.824-4.75-6.707-11.046-6.707zm0-32.89c-6.399 0-11.602 4.515-11.602 10.066 0 5.531 5.312 10.207 11.601 10.207 6.215 0 11.465-4.676 11.465-10.207 0-5.457-5.25-10.067-11.465-10.067zm0 0"/></svg>