<svg fill="#fff" xmlns="http://www.w3.org/2000/svg" width="512" height="512" viewBox="0 0 59.183 59.183"><path d="M23.75 19.967a1 1 0 1 0 0-2h-12v-2a1 1 0 1 0-2 0v2H7a1 1 0 1 0 0 2h2.75v11.5a1 1 0 1 0 2 0v-11.5h12zm20.809 7a5.63 5.63 0 0 0-5.625 5.625 5.63 5.63 0 0 0 5.625 5.625 5.628 5.628 0 0 0 5.625-5.625 5.632 5.632 0 0 0-5.625-5.625zm0 9.25a3.629 3.629 0 0 1-3.625-3.625 3.63 3.63 0 0 1 3.625-3.625c2 0 3.625 1.626 3.625 3.625 0 2-1.625 3.625-3.625 3.625z"/><path d="M58.184 28.64h-2.645a12.695 12.695 0 0 0-.418-1.018l1.867-1.87a.995.995 0 0 0 0-1.414l-4.174-4.175a1.03 1.03 0 0 0-1.414 0l-1.871 1.87c-.33-.154-.67-.295-1.02-.419v-2.647c0-.553-.445-1-1-1h-5.902a1 1 0 0 0-1 1v2.647c-.207.074-.404.165-.605.25v-8.898h1.25a1 1 0 0 0 1-1v-9a1 1 0 0 0-1-1H1a1 1 0 0 0-1 1v9a1 1 0 0 0 1 1h1.5v23a1 1 0 0 0 1 1h16.75v10.318l-8.687 8.203a1 1 0 1 0 1.373 1.455l8.283-7.822 7.563 7.791a.996.996 0 0 0 1.413.024 1 1 0 0 0 .021-1.414l-7.968-8.209V36.967h11.517c.078.201.152.408.236.594l-1.873 1.871a.997.997 0 0 0 0 1.414l4.176 4.177a.999.999 0 0 0 1.414 0l1.869-1.869c.332.153.67.295 1.019.42v2.646a1 1 0 0 0 1 1h5.903c.554 0 1-.446 1-1v-2.647c.349-.125.688-.266 1.019-.42l1.871 1.869a.999.999 0 0 0 1.414 0l4.174-4.176a.996.996 0 0 0 0-1.414l-1.869-1.867c.154-.33.295-.672.42-1.02h2.646a1 1 0 0 0 1-1v-5.906a1 1 0 0 0-1-.999zM2 3.967h38.25v7H2v-7zm2.5 9H38v7.476l-.281-.279a.997.997 0 0 0-1.414 0l-4.174 4.175a.995.995 0 0 0 0 1.414L34 27.624c-.154.33-.293.67-.418 1.018h-2.648a1 1 0 0 0-1 1v5.328H4.5V12.967zm52.684 21.578h-2.375a1 1 0 0 0-.961.723 9.757 9.757 0 0 1-.824 2.007.998.998 0 0 0 .166 1.188l1.676 1.676-2.76 2.763-1.676-1.677a1.001 1.001 0 0 0-1.191-.168 9.508 9.508 0 0 1-2.004.824 1.001 1.001 0 0 0-.723.961v2.375h-3.904v-2.375a1 1 0 0 0-.725-.961 9.554 9.554 0 0 1-2.002-.824 1 1 0 0 0-1.191.168l-1.676 1.677-2.762-2.763 1.676-1.676a.998.998 0 0 0 .168-1.19 9.42 9.42 0 0 1-.691-1.621l-.066-.191c-.021-.064-.047-.123-.062-.189a1.002 1.002 0 0 0-.961-.725h-2.375v-3.904h2.375c.443 0 .838-.295.961-.722a9.753 9.753 0 0 1 .822-2.003 1 1 0 0 0-.166-1.191l-1.676-1.677 2.76-2.761 1.281 1.28.396.396a.993.993 0 0 0 1.189.167 9.656 9.656 0 0 1 2.004-.825 1 1 0 0 0 .725-.961V19.97h3.902v2.375a1 1 0 0 0 .725.961 9.55 9.55 0 0 1 2.002.825.996.996 0 0 0 1.191-.167l1.678-1.677 2.76 2.761-1.678 1.675a1.001 1.001 0 0 0-.166 1.191c.342.619.621 1.294.823 2.003.125.428.517.723.961.723h2.375l-.001 3.905z"/></svg>