<svg id="Layer_1" xmlns="http://www.w3.org/2000/svg" viewBox="0 0 30.5 30.4"><style>.st0{fill:#252525}</style><path class="st0" d="M19.1 26.2c-.2-.1-.4 0-.4.2-.4.8-.9 1.7-1.8 2.2-.5.3-1 .5-1.5.5-.9 0-1.7-.5-2.1-1.5-.6-1.2-.7-2.5-.4-3.9.3-1.3.6-2.5 1-3.8.1-.5.3-1.1.4-1.6 0-.1.1-.3.1-.4.1-.2 0-.3-.1-.4-.1 0-.1-.1-.2-.1h-.3c-.1 0-.2.1-.2.2-.1.3-.2.6-.4.9-.2.4-.3.9-.5 1.3-.6 1.5-1.2 3.3-1.3 5.2-.1 1.6.3 2.9 1.1 4 .7.9 1.8 1.4 2.9 1.4.9 0 1.9-.4 2.6-1 .3-.3.6-.7.8-1.1.3-.6.4-1.2.5-1.7.1-.2 0-.4-.2-.4zm11.4-11.5c-.1-1.1-.7-2.1-1.8-2.8-.6-.4-1.3-.6-1.9-.8-.2-.1-.4 0-.4.2-.1.2 0 .4.1.5.2.2.4.3.6.5.4.3.9.6 1.2 1 .7.6 1 1.4.9 2.2-.1.8-.7 1.5-1.5 1.9-1 .5-2.1.6-3.4.5-2.1-.3-4.1-1-6.3-1.9l-.5-.2c-.2-.1-.4 0-.5.2-.1.2 0 .4.2.5l1.2.6c0 .1 0 .3.1.4.3.2.7.5 1 .7.8.5 1.6 1.1 2.3 1.6 1.1.8 1.9 1.6 2.4 2.5.8 1.4.8 2.3.2 3.2-.8 1-2.3 1.5-3.7 1.1l-.7-.4c-.2-.1-.4 0-.4.2-.1.2 0 .4.1.5.7.5 1.5.7 2.3.7 1.1 0 2.2-.4 2.9-1.1.6-.5.9-1.2 1-2 .2-1.5-.5-2.6-1.2-3.5-.9-1.1-2-2-3.3-2.8.4.1.9.3 1.3.4.9.2 1.9.3 3 .4h.2c1.1 0 2.1-.3 3-1l.3-.3c.9-.8 1.3-1.9 1.3-3zm-19.9 7.5l-.5.5c-.4.4-.8.8-1.2 1.1-.5.3-1 .6-1.6.8-.3.1-.7.2-1 .2-.8 0-1.4-.4-1.7-.7-.5-.5-.8-1.3-.8-2 0-.4.1-.9.3-1.3.1-.2.1-.4.2-.6 0-.1 0-.1.1-.2 0-.1.1-.2.1-.3 0-.2 0-.3-.2-.4s-.3 0-.4.1c-1.1 1.2-1.5 2.5-1.2 3.9.4 1.4 1.3 2.4 2.6 2.7.3.1.6.1.9.1.8 0 1.5-.3 2.3-.8.4-.3.8-.6 1.3-1 .5-.5.9-1 1.4-1.7.1-.2.1-.4-.1-.5-.1 0-.3 0-.5.1zm.5-18.4c.2 0 .4 0 .4-.2.5-1 1.1-1.7 1.8-2.2.4-.2.9-.4 1.3-.4 1 0 1.9.7 2.4 1.8s.6 2.3.3 3.5c-.2 1-.5 2-.7 3l-.3 1.3c0 .2 0 .4.2.6.1.1.2.1.3.1h.1c.1 0 .2-.1.3-.3l.1-.2c0-.1.1-.2.1-.4.1-.4.2-.8.4-1.2.3-.9.5-1.8.7-2.7.4-2.3 0-4-1.2-5.4C16.5.4 15.6 0 14.6 0c-1 0-2 .4-2.7 1.2-.6.7-1 1.4-1.1 2.2 0 .2.2.4.3.4zm6.9 6.3c.1 0 .1.1.2.1s.2 0 .3-.1c.2-.2.3-.4.5-.6.3-.3.5-.7.8-1 .7-.9 1.7-2 3.1-2.6 1.3-.7 2.2-.6 3.1.1.9.9 1.2 2 .8 3.3l-.1.3c-.1.2 0 .4.2.5.2.1.4 0 .5-.2.6-1.3.6-2.7-.3-3.9-.7-1.1-2.1-1.6-3.4-1.4-1 .2-1.8.6-2.8 1.4-1.1.9-2.1 2.1-3 3.7-.1.1-.1.3.1.4z"/><path class="st0" d="M12.3 14.2h.2c.1 0 .2-.1.3-.2l.1-.1c.1-.2 0-.4-.1-.5l-.6-.3c-.3-.2-.7-.4-1-.6-1.7-1-3.4-2.1-4.7-3.7-.5-.5-.8-1-1-1.5-.3-.8-.3-1.6.1-2.2.4-.7 1.1-1.2 2.1-1.4.8-.1 1.6 0 2.5.3h.2c.2 0 .4-.2.4-.4 0-.1-.1-.3-.2-.3-.8-.4-1.6-.7-2.5-.7-1.6 0-3 .8-3.6 2.1-.6 1.2-.5 2.5.4 4 1.1 1.8 2.7 2.9 4.2 3.8-1-.3-2.1-.6-3.2-.8-1.3-.2-2.6 0-3.8.6-1.4.8-2.1 1.9-2.1 3.3 0 1.3.6 2.4 2 3.3.3.2.7.3 1 .5.1.1.3.1.4.2h.3c.1 0 .2-.1.2-.2v-.1c.1-.2 0-.4-.2-.4-.7-.3-1.6-.8-2.2-1.6-.4-.6-.6-1.3-.4-2 .1-.7.6-1.3 1.2-1.7 1-.6 2.2-.9 3.6-.7 1.5.1 3 .5 4.7 1.2.1 0 .2.1.3.1.1 0 .3 0 .4-.1l.1-.1c.3-.1.6 0 .9.2z"/></svg>