<svg height="512pt" viewBox="0 -192 512.01904 512" width="512pt" xmlns="http://www.w3.org/2000/svg"><path d="M501.336 128.012a10.68 10.68 0 0 1-7.23-2.817C434.647 70.434 354.542 42.68 256.003 42.68c-98.54 0-178.645 27.754-238.102 82.515-4.308 3.989-11.07 3.735-15.082-.617-3.988-4.332-3.71-11.094.617-15.082C66.97 51 151.941 21.344 256.004 21.344S445.039 51 508.57 109.496c4.328 3.988 4.606 10.73.617 15.082a10.653 10.653 0 0 1-7.851 3.434zm0 0"/><path d="M501.336 128.012H384.004c-5.887 0-10.668-4.778-10.668-10.668 0-5.887 4.781-10.664 10.668-10.664h101.59l-36.82-92.035c-2.2-5.461.468-11.668 5.949-13.864 5.398-2.199 11.672.469 13.867 5.95l42.668 106.667c1.32 3.286.894 7.02-1.067 9.942-2.007 2.902-5.312 4.672-8.855 4.672zm0 0"/></svg>