<svg id="Layer_1" xmlns="http://www.w3.org/2000/svg" viewBox="0 0 165.9 92.5"><style>.st0{fill:#fff}</style><path class="st0" d="M50.6 77.4c5.9-2.8 8.2-9 13-16.3-3.2-1.2-5-3.5-5.1-7 0-2.6 1.4-5.3 4-7.2-1.8-.4-3.6-.6-5.3-.6-9.6.1-18.5 6.7-18.4 15.4.1 4 3.3 6.6 7.4 6.5 5.1-.1 10.9-3.7 10.8-8.3 0-2.4-1.8-3.9-5-3.9-1.9 0-4.8 1.4-5.8 4.3h-.5c.8-2.9 3.9-4.8 6.4-4.8 2.9 0 5.4 1.4 5.4 4.4.1 4.9-6.1 8.8-11.5 8.9-5.5.1-9.4-2.8-9.4-7.4-.1-9 10.6-15.3 20.5-15.4 1.9 0 3.9.2 5.8.7 1.8-1.1 4-1.8 6.7-1.8 2.2 0 5 .8 6.7 2.1l-.3.4c-2-1.5-4.5-2-6.4-2-2 0-4 .6-5.8 1.6 3.5 1 6.5 2.9 8.8 5.4 2.3-1.2 4.9-1.9 7.7-2 2.4 0 5.2.7 5.3 3.1 0 3.3-4.5 6.2-9.7 7.7.1 9.4-7.6 17.6-19.2 17.7-1.7 0-3.3-.2-4.8-.5-2.4.9-5.2 1.4-8.7 1.4-2.8 0-5.6-.5-5.6-2 0-1 1.8-1.7 4.5-1.8 3-.1 5.7.7 8.5 1.4m-.8.3c-2.4-.6-4.7-1.2-7.5-1.2-1.5 0-3.5.3-3.5 1.1 0 1.1 2.9 1.3 4.1 1.3 2.8 0 5.1-.4 6.9-1.2m3.1.2c1.3.2 2.6.4 4 .4 11.6-.2 18.4-8.3 18.3-17-1.8.4-3.7.6-5.4.7-1 0-1.9 0-2.8-.1-.5.7-1 1.5-1.4 2.1-4.3 6.9-7.5 11.6-12.7 13.9m11-17.4c2.4-3.4 5.1-6.2 8.2-8-2.2-2.7-5.4-4.4-8.7-5.4-2.2 1.5-3.7 3.8-3.7 6.7.1 3.2 1.5 5.5 4.2 6.7m3.3.9c.8.1 1.7.1 2.7.1 1.7 0 3.5-.3 5.3-.7-.1-2.6-.8-4.8-1.9-6.7-2.3 2.1-4.3 4.7-6.1 7.3m6.7-7.7c1.3 2 2 4.3 2.2 6.9 5-1.4 9.1-4.2 9-7.3 0-1.9-2.4-2.6-4-2.6-2.7.1-5.1 1.3-7.2 3"/><path class="st0" d="M81 66.5c0 .7-.9 2-1.4 2.5.3.1 1.9.2 2.3.2 1.1.1 2.3.3 2.3.9 0 .4-.6 1.4-1.3 2.4-1 1.4-2 2.9-2 3.7 0 .3.2.4.5.4 1.1 0 3.1-1.6 5.8-4.8l.4.2c-1.7 2.1-4.5 5.5-8 5.6-1 0-1.8-.4-1.8-1.3 0-1.3 1.1-2.8 1.9-4.1.5-.7.9-1.4.9-1.7 0-.3-.9-.5-1.7-.7-.7.9-1.5 2-2.2 2.7l-.4-.2c.8-.9 1.6-1.9 2.1-2.6-1-.2-1.9-.7-1.9-1.4 0-1.6 2.2-2.5 3.8-2.5.5.1.7.3.7.7m-1.9 2.4c.4-.5 1-1.5 1-2 0-.2-.1-.3-.4-.3-.6 0-1.3.8-1.3 1.5-.1.4.1.6.7.8"/><path class="st0" d="M97.1 71.8l.4.2c-1.7 2.1-4.9 5.5-9.1 5.6-2.1 0-2.8-.9-2.8-1.9 0-3.2 3.7-7 7.6-7 2.4 0 2.8 1 2.8 1.6 0 2.5-3.7 4-6.9 4-.2.3-.4 1.1-.4 1.5 0 .6.2 1 1 1 1.8 0 4.7-1.7 7.4-5m-3.5-2.1c0-.3-.1-.4-.5-.4-.9 0-2.8 2-3.9 4.5 2.7-.2 4.4-2.8 4.4-4.1"/><path class="st0" d="M111.8 71.6l.4.2c-1.7 2.1-4.7 5.5-7.9 5.6-1.3 0-1.8-.5-1.8-1.3 0-.4.1-.8.4-1.4-1.5 1.7-3 2.8-5 2.8-2.1 0-2.4-1.2-2.4-2 0-3.1 3.8-6.9 8-7 1.3 0 2.1.5 2.5 1.1l.1-.1c.3-.5.6-.7 1.3-.7h1.9c.3 0 .3.1.3.2 0 0 0 .1-.1.3-1 1.6-3.9 5.5-3.8 6.6 0 .3.2.5.5.5.8 0 2.9-1.5 5.6-4.8m-13.2 4.3c0 .4.3.7.7.7 2.1 0 5.8-4.9 5.7-6.6 0-.8-.6-.9-1-.9-2.2 0-5.4 4.7-5.4 6.8"/><path class="st0" d="M132.5 77.2c7.2-.1 14.5-3 14.4-6.7 0-1.1-.9-1.5-1.6-1.5-1.1 0-2.2.4-3.1 1l-.2-.3c.4-.3 1.8-1.1 3.3-1.1.8 0 3 .3 3 2 .1 4-9.4 6.8-16 6.9-5.2.1-7.1-.5-7.1-1.8 0-2.1 3.6-5.4 3.6-6.4 0-.2-.1-.3-.3-.2-1.4 0-6 6-6.8 7.1-.4.5-.8.7-1.2.7h-2.2c-.1 0-.3-.1-.3-.2s0-.3.2-.5c1.3-1.8 4.2-5.8 4.2-6.8 0-.3-.1-.3-.3-.2-1.4 0-6 6-6.8 7.1-.4.5-.8.7-1.2.7h-2.2c-.1 0-.3-.1-.3-.2s0-.3.2-.5c1.3-1.8 4.1-5.7 4.1-6.6 0-.3-.2-.4-.5-.4-.7 0-1.9 1-3.5 2.9l-.4-.2c2-2.3 3.2-3.5 5-3.5 1.6 0 2.2.6 2.2 1.5 0 .5-.2 1.2-1.1 2.6 2.1-2.5 3.6-4.2 5.6-4.2 1.3 0 2 .5 2 1.3 0 .6-.4 1.3-1.3 2.8 2.1-2.5 3.6-4.2 5.6-4.2 1.4 0 2.1.5 2.1 1.3 0 1.6-3.4 5.1-3.4 6.2.2.6.7 1.4 4.3 1.4m1.4-40.7c4.6-.1 8.4.7 11.4 2 .4-.1.9-.3 1.3-.4-3.3-1.4-7.5-2.2-12.7-2.1-1.9 0-4 .2-6.2.6 4.4-6.8 7.9-13 9.7-15.9.1-.1.2-.3.2-.4 0-.2-.2-.4-.6-.4h-1.3c-.7 0-1.4.7-2 1.5-1.3 1.7-5.3 6.3-6.5 6.3-.2 0-.3-.1-.3-.2 0-1 3.5-4.3 3.5-6.4 0-.9-.8-1.4-2.1-1.4-1.8 0-3.2 1.2-5.2 3.5l.4.2c1.5-1.9 2.7-2.8 3.3-2.8.3 0 .5.2.5.5 0 1.1-3.4 4.6-3.4 6.1 0 .8.6 1.4 2 1.4 2.4 0 4.6-2.6 6.7-5.1-1.5 2.5-4.3 7.6-7.8 13.5-14.7 3.3-33.8 13.1-33.7 24.4 0 2.5 1.6 4.5 5.3 4.4 10.5-.1 22.4-15.6 31-28.8 2.2-.3 4.4-.5 6.5-.5M97.2 64.7c-2.9 0-3.4-1.9-3.5-3.5-.1-9.7 15.8-19.9 30.6-23.4-7.2 12-17.5 26.7-27.1 26.9M66.5 23.6c-3.2 4.4-6.8 6.8-10.4 6.9-1.8 0-3.6-.9-3.6-3.2 0-2.3 1.6-6.3 4.2-10.5-1.2-.2-2.8-.2-4.1-.2-.9 0-1.8.1-2.6.2-.4.6-.8 1.3-1.2 1.9-1.5 2.3-3.2 4.6-5.2 6.7 2.7 1.9 4.6 4.8 4.7 8.7C48.2 42.6 38 47.7 30 47.8 20 48 11.8 42.5 9.3 34.4 4.3 32.7.1 29 0 22.7-.1 16.6 5.8 11.1 13.8 11c1.6 0 3.3.2 5 .6 5-3.5 11.9-6 20.8-6.1 5-.1 10.1-.5 15.6-2.6 2.1-.8 3.7-2.9 4.5-2.9.4 0 .7.2.7.6 0 .7-2 1.8-3.3 3.4-2.2 2.7-4.3 7.3-6.6 11.5h6.9C62.3 7.9 69.8.1 75.6 0 78.7 0 79 1.9 79 2.5c0 1.9-2.2 3.6-4 4.1l-.2-.4c1.5-.5 3.5-2.1 3.5-3.7 0-1.3-.8-1.9-2.3-1.9-5.7.1-20.1 20.5-20 27.1 0 1.2.5 1.6 1.5 1.5 2.6 0 5.3-1.8 8.6-6l.4.4zM9.2 33.9c-.4-1.4-.6-2.9-.6-4.4-.1-5.8 3-12.6 9.5-17.5-1.5-.4-3-.6-4.2-.5C6 11.6.5 16.9.6 22.8c0 5.8 3.8 9.3 8.6 11.1M55.9 3.2c-6 3.5-11.5 4-17.2 4.1-7.7.1-13.8 1.9-18.5 4.7 3.4 1.2 6.2 3.4 6.2 7.1.1 4.9-6.1 8-11.3 8.1v-.5c6-.3 9.6-3.3 9.5-7.7 0-3.5-2.4-5.5-5.3-6.6C12.4 17 9 23.6 9.1 29.6c0 1.6.3 3.1.7 4.5 2.7.9 5.6 1.3 8.4 1.2 2.1 0 3.9-.2 5.7-.5-.1-.4-.1-.8-.1-1.3-.1-6.4 5.3-10.8 11.5-10.9 1.9 0 3.9.4 5.8 1.2 1.1-1.5 2.3-3.2 3.5-5 3.5-5.4 6.1-11.2 11.3-15.6zm-46 31.5c2.5 7.7 10.4 12.8 20 12.7 7.7-.1 16.5-4.7 16.4-13.1 0-3.5-1.4-6.3-3.6-8.3-4.4 4.4-10.2 8-18.3 9.3.5 2.2 1.8 3.5 2.8 3.9l-.2.4c-1.4-.6-2.7-2-3.2-4.2-1.8.3-3.7.4-5.7.5-2.6 0-5.5-.4-8.2-1.2m30.6-10.3c-1.6-.8-3.4-1.2-5.2-1.2-6 .1-11.2 4.2-11.1 10.3 0 .4 0 .8.1 1.3 7.6-1.2 11.9-4.8 16.2-10.4"/><path class="st0" d="M75.7 22.5c0 2.5-2.6 6.6-7.9 6.7-2.4 0-3.3-.8-3.3-2.1 0-2.7 3.4-6.8 7.7-6.9 2.7 0 3.5 1.2 3.5 2.3m-8.4 5.4c0 .5.2.8.7.8 1.9 0 5.6-5.2 5.6-7.1 0-.5-.3-.8-.8-.8-1.8 0-5.3 4.6-5.5 7.1m12.6-1c0 1.1.8 1.2 1.1 1.2 1 0 3.2-1.6 5.9-4.8l.4.2c-1.7 2.1-4.7 5.5-8 5.6-2.2 0-2.6-1.2-2.6-2.1-.1-4.2 10.5-23.3 20.7-23.5 2.4 0 3.5.7 3.5 1.9 0 .4-.1.8-.3 1.3h-.5c-.3-1.9-1.4-2.6-3.2-2.6-4.7.1-11.1 9.7-14.6 16.4-1.8 3.5-2.4 5.3-2.4 6.4"/><path class="st0" d="M87.7 27.5c0 .3.2.5.6.5 1.1 0 3.1-1.6 5.8-4.8l.4.2c-1.7 2.1-4.6 5.5-7.9 5.6-1.4 0-1.9-.5-2-1.4 0-1.2 2.2-4.4 3.4-6.2.4-.6.9-1 1.7-1h1.6c.3 0 .4.1.4.2 0 0 0 .1-.1.3-1 1.6-3.9 5.5-3.9 6.6m3.7-12.4c0-.8.9-1.7 1.9-1.8.7 0 1.4.6 1.4 1.3 0 .9-.9 1.7-1.9 1.8-1 0-1.4-.6-1.4-1.3"/><path class="st0" d="M106.4 15.6c.8-1.2 1.5-2.3 2.7-3.9 3.2-4.4 7.7-8.6 13.2-8.7 2.7 0 4 1.5 4 2.9 0 3.5-5 9.3-16.9 10.1l-2.5 4c-1 1.6-4.3 6.3-4.3 7.3 0 .3.2.5.5.5 1 0 3.1-1.5 5.8-4.8l.4.2c-1.7 2.1-4.7 5.5-7.9 5.6-1.3 0-1.8-.5-1.8-1.3 0-.4.1-.8.4-1.4-1.5 1.7-3 2.8-5 2.8-2.1 0-2.4-1.2-2.4-2 0-3.1 3.8-6.9 8-7 1.3 0 2.1.5 2.5 1.1l3.2-4.9c-5.3-.2-13.1-2.6-13.2-8.1 0-2.9 2.3-5.7 5.6-6.7l.1.3c-3.1.9-4.6 3.4-4.5 6.1-.1 4.4 5.1 7.7 12.1 7.9m-11 11.8c0 .4.3.7.7.7 2.1 0 5.9-5.1 5.9-6.8 0-.8-.6-.9-1-.9-2.3 0-5.7 4.9-5.6 7m16.5-15.5l-2.4 3.6c10.6-.8 15-6.3 15-9.5 0-.8-.3-2.4-2.7-2.4-3.7.1-7.1 4.4-9.9 8.3"/><path class="st0" d="M124 22.8l-.2.3c-1.7 2.1-4.5 5.4-7.8 5.4-1.3 0-1.8-.5-1.8-1.3 0-.4.1-.8.4-1.4-1.5 1.7-3 2.8-5 2.8-2.1 0-2.4-1.2-2.4-2 0-3.1 3.8-6.9 8-7 1.3 0 2.1.5 2.5 1.1l.1-.1c.3-.5.6-.7 1.3-.7h1.9c.3 0 .3.1.3.2 0 0 0 .1-.1.3-1 1.6-3.9 5.5-3.8 6.6 0 .3.2.5.5.5 1 0 3.1-1.5 5.8-4.8l.3.1zM110.3 27c0 .4.3.7.7.7 2.1 0 5.8-4.9 5.7-6.6 0-.8-.6-.9-1-.9-2.2 0-5.5 4.8-5.4 6.8m-49 62.6h-2.5v2.5h2.8v.3l-3.3.1-.1-5.8h3.2v.3h-2.6v2.3h2.5zm4.2 2.8l-2.2-5.7h.6l1.1 2.8c.3.7.6 1.6.8 2.3h.1c.1-.8.4-1.7.7-2.4l1-2.8h.6l-2.1 5.8h-.6zm7.9-3l-2.5.1.1 2.5h2.7l.1.3h-3.4l-.1-5.7 3.2-.1v.4h-2.6v2.2h2.5zm2.4 2.9l-.1-5.8h.6l1.9 3c.5.7 1 1.5 1.3 2.2-.1-1.1-.1-1.7-.1-2.6v-2.5h.6l.1 5.8h-.6l-2-3.1c-.4-.6-.8-1.2-1.2-2.1.1.9.1 1.5.1 2.8v2.4l-.6-.1zm8-5.6l-1.7.1v-.4h4v.3h-1.7v5.5h-.5zm8.3 3.4l-.7 2h-.6l2.1-5.8h.6l2.3 5.7h-.6l-.8-2-2.3.1zm2.2-.3l-.6-1.6c-.2-.4-.3-.9-.4-1.3h-.1c-.1.5-.2.9-.4 1.3l-.6 1.6h2.1zm7.6 2c-.4.1-.9.2-1.5.2-.7 0-1.4-.1-2-.5-.6-.4-1.1-1.2-1.1-2.3 0-2.3 1.8-3.1 3.2-3.1.5 0 .9 0 1.2.1l-.2.3c-.2-.1-.5-.1-1.1-.1-1.1 0-2.5.6-2.5 2.6s1.2 2.6 2.5 2.6c.5 0 .7-.1.8-.1v-2.2h-1.4V89h2l.1 2.8zm5.4-2.7h-2.4v2.5h2.8v.3l-3.4.1v-5.8h3.2v.3h-2.6v2.3l2.4-.1zm2.5 2.8l-.1-5.8h.6l1.9 3c.5.7 1 1.5 1.3 2.2-.1-1.1-.1-1.7-.1-2.6v-2.5h.6l.1 5.8h-.6l-2-3.1c-.4-.6-.8-1.2-1.2-2.1.1.9.1 1.5.1 2.8V92l-.6-.1zm10.7-.2c-.3.1-.7.2-1.3.2-1.5 0-2.9-.7-2.9-2.8 0-2.3 1.7-3 3-3 .5 0 .9 0 1.1.1l-.2.3c-.2-.1-.5-.1-1-.1-1 0-2.3.7-2.2 2.6 0 2 1.2 2.6 2.4 2.6.5 0 .8-.1 1-.2l.1.3zm3.6 0v-2.6L122 86h.6l.9 1.5c.3.4.6.9.8 1.3.2-.5.5-.9.8-1.4l.9-1.5h.6l-2.1 3.2v2.6h-.4zm30.4-40.1c-.2-.1-.4 0-.4.2-.4.8-.9 1.7-1.8 2.2-.5.3-1 .5-1.5.5-.9 0-1.7-.5-2.1-1.5-.6-1.2-.7-2.5-.4-3.9.3-1.3.6-2.5 1-3.8.1-.5.3-1.1.4-1.6 0-.1.1-.3.1-.4.1-.2 0-.3-.1-.4-.1 0-.1-.1-.2-.1h-.3c-.1 0-.2.1-.2.2-.1.3-.2.6-.4.9-.2.4-.3.9-.5 1.3-.6 1.5-1.2 3.3-1.3 5.2-.1 1.6.3 2.9 1.1 4 .7.9 1.8 1.4 2.9 1.4.9 0 1.9-.4 2.6-1 .3-.3.6-.7.8-1.1.3-.6.4-1.2.5-1.7.1-.1 0-.3-.2-.4z"/><path class="st0" d="M165.8 40.2c-.1-1.1-.7-2.1-1.8-2.8-.6-.4-1.3-.6-1.9-.8-.2-.1-.4 0-.4.2-.1.2 0 .4.1.5.2.2.4.3.6.5.4.3.9.6 1.2 1 .7.6 1 1.4.9 2.2-.1.8-.7 1.5-1.5 1.9-1 .5-2.1.6-3.4.5-2.1-.3-4.1-1-6.3-1.9l-.5-.2c-.2-.1-.4 0-.5.2-.1.2 0 .4.2.5l1.2.6c0 .1 0 .3.1.4.3.2.7.5 1 .7.8.5 1.6 1.1 2.3 1.6 1.1.8 1.9 1.6 2.4 2.5.8 1.4.8 2.3.2 3.2-.8 1-2.3 1.5-3.7 1.1l-.7-.2c-.2-.1-.4 0-.4.2-.1.2 0 .4.1.5.7.5 1.5.7 2.3.7 1.1 0 2.2-.4 2.9-1.1.6-.5.9-1.2 1-2 .2-1.5-.5-2.6-1.2-3.5-.9-1.1-2-2-3.3-2.8.4.1.9.3 1.3.4.9.2 1.9.3 3 .4h.2c1.1 0 2.1-.3 3-1l.3-.3c1-1.1 1.4-2.1 1.3-3.2zM146 47.7l-.5.5c-.4.4-.8.8-1.2 1.1-.5.3-1 .6-1.6.8-.3.1-.7.2-1 .2-.8 0-1.4-.4-1.7-.7-.5-.5-.8-1.3-.8-2 0-.4.1-.9.3-1.3.1-.2.1-.4.2-.6 0-.1 0-.1.1-.2 0-.1.1-.2.1-.3 0-.2 0-.3-.2-.4-.1-.1-.3 0-.4.1-1.1 1.2-1.5 2.5-1.2 3.9.4 1.4 1.3 2.4 2.6 2.7.3.1.6.1.9.1.8 0 1.5-.3 2.3-.8.4-.3.8-.6 1.3-1 .5-.5.9-1 1.4-1.7.1-.2.1-.4-.1-.5-.1 0-.3 0-.5.1zm.5-18.4c.2 0 .4 0 .4-.2.5-1 1.1-1.7 1.8-2.2.4-.2.9-.4 1.3-.4 1 0 1.9.7 2.4 1.8s.6 2.3.3 3.5c-.2 1-.5 2-.7 3l-.3 1.3c0 .2 0 .4.2.6.1.1.2.1.3.1h.1c.1 0 .2-.1.3-.3l.1-.2c0-.1.1-.2.1-.4.1-.4.2-.8.4-1.2.3-.9.5-1.8.7-2.7.4-2.3 0-4-1.2-5.4-.7-.7-1.6-1.1-2.5-1.1-1 0-2 .4-2.7 1.2-.6.7-1 1.4-1.1 2.2-.2.2-.1.3.1.4zm6.9 6.3c.1 0 .1.1.2.1s.2 0 .3-.1c.2-.2.3-.4.5-.6.3-.3.5-.7.8-1 .7-.9 1.7-2 3.1-2.6 1.3-.6 2.3-.6 3.1.2.9.9 1.2 2 .8 3.3l-.1.3c-.1.2 0 .4.2.5.2.1.4 0 .5-.2.7-1.3.6-2.7-.2-3.9-.7-1.1-2.1-1.6-3.4-1.4-1 .2-1.8.6-2.8 1.4-1.1.9-2.1 2.1-3 3.7-.2 0-.2.2 0 .3z"/><path class="st0" d="M147.7 39.7h.2c.1 0 .2-.1.3-.2l.1-.1c.1-.2 0-.4-.1-.5l-.6-.3c-.3-.2-.7-.4-1-.6-1.7-1-3.4-2.1-4.7-3.7-.4-.5-.7-1-.9-1.5-.3-.8-.3-1.5.1-2.2.4-.7 1.2-1.2 2.1-1.4.8-.1 1.6 0 2.5.3h.2c.2 0 .4-.2.4-.4 0-.1-.1-.3-.2-.3-.7-.5-1.5-.8-2.4-.8-1.6 0-3 .8-3.6 2.1-.6 1.2-.5 2.5.4 4 1.1 1.8 2.7 2.9 4.2 3.8-1-.3-2.1-.6-3.2-.8-1.3-.2-2.6 0-3.8.6-1.4.7-2.1 1.8-2.1 3.2 0 1.3.6 2.4 2 3.3.3.2.7.3 1 .5.1.1.3.1.4.2h.3c.1 0 .2-.1.2-.2v-.1c.1-.2 0-.4-.2-.4-.7-.3-1.6-.8-2.2-1.6-.4-.6-.6-1.3-.4-2 .1-.7.6-1.3 1.2-1.7 1-.6 2.2-.9 3.6-.7 1.5.1 3 .5 4.7 1.2.1 0 .2.1.3.1.1 0 .3 0 .4-.1l.1-.1c.1 0 .4.2.7.4z"/></svg>